<mxfile host="app.diagrams.net" modified="2023-08-18T23:26:51.092Z" agent="Mozilla/5.0 (Windows NT 10.0; Win64; x64) AppleWebKit/537.36 (KHTML, like Gecko) Chrome/116.0.0.0 Safari/537.36" etag="VLpXFUtevFt4YMZmdMrv" version="21.6.8" type="device">
  <diagram name="Página-1" id="viJ4oMN6f-jxp9GmLiId">
    <mxGraphModel dx="1154" dy="545" grid="1" gridSize="10" guides="1" tooltips="1" connect="1" arrows="1" fold="1" page="1" pageScale="1" pageWidth="827" pageHeight="1169" math="0" shadow="0">
      <root>
        <mxCell id="0" />
        <mxCell id="1" parent="0" />
        <mxCell id="BdScing0qQMbaWJBGeAm-1" value="&lt;font style=&quot;vertical-align: inherit;&quot;&gt;&lt;font style=&quot;vertical-align: inherit;&quot;&gt;usuário&lt;/font&gt;&lt;/font&gt;" style="shape=umlActor;verticalLabelPosition=bottom;verticalAlign=top;html=1;outlineConnect=0;" vertex="1" parent="1">
          <mxGeometry x="120" y="230" width="30" height="60" as="geometry" />
        </mxCell>
        <mxCell id="BdScing0qQMbaWJBGeAm-2" value="Empresa&amp;nbsp;" style="shape=umlActor;verticalLabelPosition=bottom;verticalAlign=top;html=1;outlineConnect=0;" vertex="1" parent="1">
          <mxGeometry x="780" y="230" width="30" height="60" as="geometry" />
        </mxCell>
        <mxCell id="BdScing0qQMbaWJBGeAm-5" value="Login" style="ellipse;whiteSpace=wrap;html=1;" vertex="1" parent="1">
          <mxGeometry x="400" width="120" height="80" as="geometry" />
        </mxCell>
        <mxCell id="BdScing0qQMbaWJBGeAm-6" value="Cadastro Candidato&amp;nbsp;" style="ellipse;whiteSpace=wrap;html=1;" vertex="1" parent="1">
          <mxGeometry x="75" y="10" width="120" height="80" as="geometry" />
        </mxCell>
        <mxCell id="BdScing0qQMbaWJBGeAm-7" value="Cadastro Empresa&amp;nbsp;" style="ellipse;whiteSpace=wrap;html=1;" vertex="1" parent="1">
          <mxGeometry x="735" y="10" width="120" height="80" as="geometry" />
        </mxCell>
        <mxCell id="BdScing0qQMbaWJBGeAm-9" value="" style="endArrow=none;html=1;rounded=0;entryX=0.5;entryY=1;entryDx=0;entryDy=0;" edge="1" parent="1" source="BdScing0qQMbaWJBGeAm-1" target="BdScing0qQMbaWJBGeAm-6">
          <mxGeometry width="50" height="50" relative="1" as="geometry">
            <mxPoint x="170" y="130" as="sourcePoint" />
            <mxPoint x="260" y="110" as="targetPoint" />
          </mxGeometry>
        </mxCell>
        <mxCell id="BdScing0qQMbaWJBGeAm-10" value="" style="endArrow=none;html=1;rounded=0;entryX=0;entryY=0.5;entryDx=0;entryDy=0;" edge="1" parent="1" source="BdScing0qQMbaWJBGeAm-1" target="BdScing0qQMbaWJBGeAm-5">
          <mxGeometry width="50" height="50" relative="1" as="geometry">
            <mxPoint x="180" y="140" as="sourcePoint" />
            <mxPoint x="270" y="190" as="targetPoint" />
          </mxGeometry>
        </mxCell>
        <mxCell id="BdScing0qQMbaWJBGeAm-11" value="" style="endArrow=none;html=1;rounded=0;entryX=0.5;entryY=1;entryDx=0;entryDy=0;" edge="1" parent="1" source="BdScing0qQMbaWJBGeAm-2" target="BdScing0qQMbaWJBGeAm-7">
          <mxGeometry width="50" height="50" relative="1" as="geometry">
            <mxPoint x="790" y="220" as="sourcePoint" />
            <mxPoint x="640" y="100" as="targetPoint" />
          </mxGeometry>
        </mxCell>
        <mxCell id="BdScing0qQMbaWJBGeAm-15" value="Home (Exibe as vagas)" style="ellipse;whiteSpace=wrap;html=1;" vertex="1" parent="1">
          <mxGeometry x="400" y="100" width="120" height="80" as="geometry" />
        </mxCell>
        <mxCell id="BdScing0qQMbaWJBGeAm-18" value="Área de criação" style="ellipse;whiteSpace=wrap;html=1;" vertex="1" parent="1">
          <mxGeometry x="470" y="260" width="120" height="80" as="geometry" />
        </mxCell>
        <mxCell id="BdScing0qQMbaWJBGeAm-19" value="" style="endArrow=none;html=1;rounded=0;entryX=1;entryY=0.5;entryDx=0;entryDy=0;" edge="1" parent="1" source="BdScing0qQMbaWJBGeAm-2" target="BdScing0qQMbaWJBGeAm-5">
          <mxGeometry width="50" height="50" relative="1" as="geometry">
            <mxPoint x="740" y="255" as="sourcePoint" />
            <mxPoint x="520" y="30" as="targetPoint" />
          </mxGeometry>
        </mxCell>
        <mxCell id="BdScing0qQMbaWJBGeAm-20" value="" style="endArrow=none;html=1;rounded=0;" edge="1" parent="1" source="BdScing0qQMbaWJBGeAm-2" target="BdScing0qQMbaWJBGeAm-18">
          <mxGeometry width="50" height="50" relative="1" as="geometry">
            <mxPoint x="750" y="265" as="sourcePoint" />
            <mxPoint x="519" y="182" as="targetPoint" />
          </mxGeometry>
        </mxCell>
        <mxCell id="BdScing0qQMbaWJBGeAm-21" value="Candidatar a vaga" style="ellipse;whiteSpace=wrap;html=1;" vertex="1" parent="1">
          <mxGeometry x="310" y="260" width="120" height="80" as="geometry" />
        </mxCell>
        <mxCell id="BdScing0qQMbaWJBGeAm-22" value="" style="endArrow=none;html=1;rounded=0;" edge="1" parent="1" source="BdScing0qQMbaWJBGeAm-1" target="BdScing0qQMbaWJBGeAm-21">
          <mxGeometry width="50" height="50" relative="1" as="geometry">
            <mxPoint x="160" y="265" as="sourcePoint" />
            <mxPoint x="397" y="189" as="targetPoint" />
          </mxGeometry>
        </mxCell>
        <mxCell id="BdScing0qQMbaWJBGeAm-23" value="Vagas criadas" style="ellipse;whiteSpace=wrap;html=1;" vertex="1" parent="1">
          <mxGeometry x="480" y="350" width="120" height="80" as="geometry" />
        </mxCell>
        <mxCell id="BdScing0qQMbaWJBGeAm-24" value="" style="endArrow=none;html=1;rounded=0;" edge="1" parent="1" source="BdScing0qQMbaWJBGeAm-2" target="BdScing0qQMbaWJBGeAm-23">
          <mxGeometry width="50" height="50" relative="1" as="geometry">
            <mxPoint x="740" y="270" as="sourcePoint" />
            <mxPoint x="609" y="390" as="targetPoint" />
          </mxGeometry>
        </mxCell>
        <mxCell id="BdScing0qQMbaWJBGeAm-26" value="Candidatos cadastrados&amp;nbsp;" style="ellipse;whiteSpace=wrap;html=1;" vertex="1" parent="1">
          <mxGeometry x="600" y="390" width="120" height="80" as="geometry" />
        </mxCell>
        <mxCell id="BdScing0qQMbaWJBGeAm-27" value="" style="endArrow=none;html=1;rounded=0;entryX=0.75;entryY=0;entryDx=0;entryDy=0;entryPerimeter=0;" edge="1" parent="1" target="BdScing0qQMbaWJBGeAm-26">
          <mxGeometry width="50" height="50" relative="1" as="geometry">
            <mxPoint x="780" y="270" as="sourcePoint" />
            <mxPoint x="677" y="460" as="targetPoint" />
          </mxGeometry>
        </mxCell>
        <mxCell id="BdScing0qQMbaWJBGeAm-28" value="" style="endArrow=none;html=1;rounded=0;entryX=1;entryY=0.5;entryDx=0;entryDy=0;" edge="1" parent="1" source="BdScing0qQMbaWJBGeAm-2" target="BdScing0qQMbaWJBGeAm-15">
          <mxGeometry width="50" height="50" relative="1" as="geometry">
            <mxPoint x="790" y="263" as="sourcePoint" />
            <mxPoint x="515" y="136" as="targetPoint" />
          </mxGeometry>
        </mxCell>
        <mxCell id="BdScing0qQMbaWJBGeAm-29" value="" style="endArrow=none;html=1;rounded=0;entryX=0;entryY=0.5;entryDx=0;entryDy=0;entryPerimeter=0;" edge="1" parent="1" source="BdScing0qQMbaWJBGeAm-1" target="BdScing0qQMbaWJBGeAm-15">
          <mxGeometry width="50" height="50" relative="1" as="geometry">
            <mxPoint x="160" y="261" as="sourcePoint" />
            <mxPoint x="387" y="129" as="targetPoint" />
          </mxGeometry>
        </mxCell>
        <mxCell id="BdScing0qQMbaWJBGeAm-31" value="Perfil" style="ellipse;whiteSpace=wrap;html=1;" vertex="1" parent="1">
          <mxGeometry x="400" y="190" width="120" height="80" as="geometry" />
        </mxCell>
        <mxCell id="BdScing0qQMbaWJBGeAm-32" value="" style="endArrow=none;html=1;rounded=0;entryX=1;entryY=0.5;entryDx=0;entryDy=0;" edge="1" parent="1" source="BdScing0qQMbaWJBGeAm-2" target="BdScing0qQMbaWJBGeAm-31">
          <mxGeometry width="50" height="50" relative="1" as="geometry">
            <mxPoint x="790" y="263" as="sourcePoint" />
            <mxPoint x="530" y="150" as="targetPoint" />
          </mxGeometry>
        </mxCell>
        <mxCell id="BdScing0qQMbaWJBGeAm-33" value="" style="endArrow=none;html=1;rounded=0;entryX=0;entryY=0.5;entryDx=0;entryDy=0;" edge="1" parent="1" source="BdScing0qQMbaWJBGeAm-1" target="BdScing0qQMbaWJBGeAm-31">
          <mxGeometry width="50" height="50" relative="1" as="geometry">
            <mxPoint x="160" y="274" as="sourcePoint" />
            <mxPoint x="309" y="315" as="targetPoint" />
          </mxGeometry>
        </mxCell>
      </root>
    </mxGraphModel>
  </diagram>
</mxfile>
